<svg xmlns="http://www.w3.org/2000/svg" viewBox="0 0 1200 630" width="1200" height="630">
  <defs>
    <linearGradient id="bg" x1="0" y1="0" x2="1200" y2="630" gradientUnits="userSpaceOnUse">
      <stop offset="0" stop-color="#1267ea"/>
      <stop offset="0.5" stop-color="#0642b5"/>
      <stop offset="0.85" stop-color="#0a8f8c"/>
      <stop offset="1" stop-color="#007a78"/>
    </linearGradient>
  </defs>
  <rect width="1200" height="630" fill="url(#bg)"/>
  <g transform="translate(70,110) scale(1.18)">
    <path d="M223.4 286.6 A118 118 0 1 1 296.6 213.4" fill="none" stroke="#ffffff" stroke-width="30" stroke-linecap="round"/>
    <line x1="275.5" y1="265.5" x2="330" y2="320" stroke="#ffffff" stroke-width="32" stroke-linecap="round"/>
    <path d="M214 118 C197 104 168 103 154 117 C140 131 146 150 169 161 C192 172 208 181 206 201 C204 222 176 227 152 215"
          fill="none" stroke="#ffffff" stroke-width="27" stroke-linecap="round" stroke-linejoin="round"/>
    <circle cx="158" cy="252" r="8.5" fill="#ffffff"/>
    <circle cx="185" cy="252" r="8.5" fill="#cffaf0"/>
    <circle cx="212" cy="252" r="8.5" fill="#9ff0e0"/>
  </g>
  <text x="560" y="300" font-family="Helvetica Neue, Arial, sans-serif" font-size="120" font-weight="700" letter-spacing="-4" fill="#ffffff">SciNapse</text>
  <text x="562" y="372" font-family="Helvetica Neue, Arial, sans-serif" font-size="42" font-weight="400" fill="#eaf6ff">Ciência com fontes verificáveis</text>
  <rect x="562" y="410" width="128" height="8" rx="4" fill="#14d7b1"/>
</svg>
